<?xml version="1.0" encoding="UTF-8" standalone="no"?>
<!DOCTYPE svg PUBLIC "-//W3C//DTD SVG 1.1//EN"
 "http://www.w3.org/Graphics/SVG/1.1/DTD/svg11.dtd">
<!-- Generated by graphviz version 2.26.3 (20100126.1600)
 -->
<!-- Title: foo Pages: 1 -->
<svg width="1440pt" height="1440pt"
 viewBox="0.00 0.00 1440.00 1440.00" xmlns="http://www.w3.org/2000/svg" xmlns:xlink="http://www.w3.org/1999/xlink">
<g id="graph1" class="graph" transform="scale(0.952381 0.952381) rotate(0) translate(36 1476)">
<title>foo</title>
<polygon fill="white" stroke="white" points="-36,37 -36,-1476 1477,-1476 1477,37 -36,37"/>
<!-- TRAF6 -->
<g id="node2" class="node"><title>TRAF6</title>
<ellipse fill="white" stroke="black" stroke-width="2" cx="462.135" cy="-1171" rx="72" ry="36"/>
<text text-anchor="middle" x="462.135" y="-1165.2" font-family="Helvetica,sans-Serif" font-size="22.00">TRAF6</text>
</g>
<!-- p38 -->
<g id="node6" class="node"><title>p38</title>
<ellipse fill="white" stroke="black" stroke-width="2" cx="418.135" cy="-945" rx="72" ry="36"/>
<text text-anchor="middle" x="418.135" y="-939.2" font-family="Helvetica,sans-Serif" font-size="22.00">p38</text>
</g>
<!-- TRAF6&#45;&gt;p38 -->
<g id="edge17" class="edge"><title>TRAF6&#45;&gt;p38:center</title>
<path fill="none" stroke="black" stroke-width="3" d="M455.115,-1134.94C448.078,-1098.8 437.149,-1042.66 428.994,-1000.78"/>
<polygon fill="black" stroke="black" points="435.824,-999.225 425.131,-980.932 422.082,-1001.9 435.824,-999.225"/>
</g>
<!-- and1 -->
<g id="node9" class="node"><title>and1</title>
<ellipse fill="black" stroke="black" stroke-width="2" cx="644.135" cy="-945" rx="3" ry="3.5"/>
</g>
<!-- TRAF6&#45;&gt;and1 -->
<g id="edge19" class="edge"><title>TRAF6&#45;&gt;and1:center</title>
<path fill="none" stroke="black" stroke-width="3" d="M489.382,-1137.17C528.358,-1088.77 598.691,-1001.43 629.269,-963.461"/>
<polygon fill="black" stroke="black" points="634.839,-967.704 641.931,-947.737 623.935,-958.923 634.839,-967.704"/>
</g>
<!-- NFkB -->
<g id="node17" class="node"><title>NFkB</title>
<ellipse fill="lightblue" stroke="lightblue" stroke-width="2" cx="175.135" cy="-44" rx="72" ry="36"/>
<text text-anchor="middle" x="175.135" y="-38.2" font-family="Helvetica,sans-Serif" font-size="22.00">NFkB</text>
</g>
<!-- TRAF6&#45;&gt;NFkB -->
<g id="edge15" class="edge"><title>TRAF6&#45;&gt;NFkB:center</title>
<path fill="none" stroke="black" stroke-width="3" d="M398.084,-1154.38C313.499,-1130.52 175.135,-1084 175.135,-1035 175.135,-1035 175.135,-1035 175.135,-180 175.135,-153.794 175.135,-124.749 175.135,-100.251"/>
<polygon fill="black" stroke="black" points="182.135,-100.079 175.135,-80.0791 168.135,-100.079 182.135,-100.079"/>
</g>
<!-- PI3K -->
<g id="node3" class="node"><title>PI3K</title>
<ellipse fill="orangered" stroke="orangered" stroke-width="2" cx="871.135" cy="-1171" rx="72" ry="36"/>
<text text-anchor="middle" x="871.135" y="-1165.2" font-family="Helvetica,sans-Serif" font-size="22.00">PI3K</text>
</g>
<!-- Akt -->
<g id="node7" class="node"><title>Akt</title>
<ellipse fill="lightblue" stroke="lightblue" stroke-width="2" cx="871.135" cy="-945" rx="72" ry="36"/>
<text text-anchor="middle" x="871.135" y="-939.2" font-family="Helvetica,sans-Serif" font-size="22.00">Akt</text>
</g>
<!-- PI3K&#45;&gt;Akt -->
<g id="edge29" class="edge"><title>PI3K&#45;&gt;Akt:center</title>
<path fill="none" stroke="black" stroke-width="3" d="M871.135,-1134.94C871.135,-1098.99 871.135,-1043.25 871.135,-1001.43"/>
<polygon fill="black" stroke="black" points="878.135,-1001.31 871.135,-981.306 864.135,-1001.31 878.135,-1001.31"/>
</g>
<!-- Ras -->
<g id="node4" class="node"><title>Ras</title>
<ellipse fill="white" stroke="black" stroke-width="2" cx="1265.14" cy="-1171" rx="72" ry="36"/>
<text text-anchor="middle" x="1265.14" y="-1165.2" font-family="Helvetica,sans-Serif" font-size="22.00">Ras</text>
</g>
<!-- Raf -->
<g id="node8" class="node"><title>Raf</title>
<ellipse fill="orangered" stroke="orangered" stroke-width="2" cx="1265.14" cy="-945" rx="72" ry="36"/>
<text text-anchor="middle" x="1265.14" y="-939.2" font-family="Helvetica,sans-Serif" font-size="22.00">Raf</text>
</g>
<!-- Ras&#45;&gt;Raf -->
<g id="edge31" class="edge"><title>Ras&#45;&gt;Raf:center</title>
<path fill="none" stroke="black" stroke-width="3" d="M1265.14,-1134.94C1265.14,-1098.99 1265.14,-1043.25 1265.14,-1001.43"/>
<polygon fill="black" stroke="black" points="1272.14,-1001.31 1265.14,-981.306 1258.14,-1001.31 1272.14,-1001.31"/>
</g>
<!-- Hsp27 -->
<g id="node16" class="node"><title>Hsp27</title>
<ellipse fill="lightblue" stroke="lightblue" stroke-width="2" cx="608.135" cy="-44" rx="72" ry="36"/>
<text text-anchor="middle" x="608.135" y="-38.2" font-family="Helvetica,sans-Serif" font-size="22.00">Hsp27</text>
</g>
<!-- p38&#45;&gt;Hsp27 -->
<g id="edge13" class="edge"><title>p38&#45;&gt;Hsp27:center</title>
<path fill="none" stroke="black" stroke-width="3" d="M411.172,-909.074C406.477,-881.744 401.135,-843.146 401.135,-809 401.135,-809 401.135,-809 401.135,-180 401.135,-118.611 465.513,-83.3962 522.464,-64.254"/>
<polygon fill="black" stroke="black" points="524.763,-70.87 541.785,-58.2504 520.609,-57.5005 524.763,-70.87"/>
</g>
<!-- and2 -->
<g id="node22" class="node"><title>and2</title>
<ellipse fill="black" stroke="black" stroke-width="2" cx="1039.14" cy="-720" rx="3" ry="3.5"/>
</g>
<!-- Akt&#45;&gt;and2 -->
<g id="edge25" class="edge"><title>Akt&#45;&gt;and2:center</title>
<path fill="none" stroke="red" stroke-width="3" d="M896.651,-910.827C935.414,-858.912 1007.16,-762.818 1031.12,-730.739"/>
<polygon fill="red" stroke="red" points="1027.9,-718.331 1043.93,-730.296 1041.53,-733.502 1025.51,-721.536 1027.9,-718.331"/>
<polyline fill="none" stroke="red" points="1037.11,-722.711 1031.13,-730.724 "/>
</g>
<!-- Raf&#45;&gt;and2 -->
<g id="edge27" class="edge"><title>Raf&#45;&gt;and2:center</title>
<path fill="none" stroke="black" stroke-width="3" d="M1232.75,-912.763C1183.92,-864.147 1093.18,-773.803 1055.84,-736.633"/>
<polygon fill="black" stroke="black" points="1060.55,-731.446 1041.44,-722.296 1050.68,-741.367 1060.55,-731.446"/>
</g>
<!-- Jnk -->
<g id="node11" class="node"><title>Jnk</title>
<ellipse fill="lightblue" stroke="lightblue" stroke-width="2" cx="644.135" cy="-720" rx="72" ry="36"/>
<text text-anchor="middle" x="644.135" y="-714.2" font-family="Helvetica,sans-Serif" font-size="22.00">Jnk</text>
</g>
<!-- and1&#45;&gt;Jnk -->
<g id="edge41" class="edge"><title>and1&#45;&gt;Jnk:center</title>
<path fill="none" stroke="black" stroke-width="3" d="M644.135,-941.466C644.135,-922.952 644.135,-835.745 644.135,-776.446"/>
<polygon fill="black" stroke="black" points="651.135,-776.418 644.135,-756.418 637.135,-776.418 651.135,-776.418"/>
</g>
<!-- cJun -->
<g id="node20" class="node"><title>cJun</title>
<ellipse fill="lightblue" stroke="lightblue" stroke-width="2" cx="644.135" cy="-495" rx="72" ry="36"/>
<text text-anchor="middle" x="644.135" y="-489.2" font-family="Helvetica,sans-Serif" font-size="22.00">cJun</text>
</g>
<!-- Jnk&#45;&gt;cJun -->
<g id="edge7" class="edge"><title>Jnk&#45;&gt;cJun:center</title>
<path fill="none" stroke="black" stroke-width="3" d="M644.135,-683.85C644.135,-648.095 644.135,-592.858 644.135,-551.343"/>
<polygon fill="black" stroke="black" points="651.135,-551.06 644.135,-531.06 637.135,-551.06 651.135,-551.06"/>
</g>
<!-- TNFa -->
<g id="node13" class="node"><title>TNFa</title>
<ellipse fill="#9acd32" stroke="#9acd32" cx="623.135" cy="-1396" rx="72" ry="36"/>
<text text-anchor="middle" x="623.135" y="-1390.2" font-family="Helvetica,sans-Serif" font-size="22.00">TNFa</text>
</g>
<!-- TNFa&#45;&gt;TRAF6 -->
<g id="edge21" class="edge"><title>TNFa&#45;&gt;TRAF6:center</title>
<path fill="none" stroke="black" stroke-width="3" d="M598.683,-1361.83C571.95,-1324.47 528.846,-1264.23 498.223,-1221.43"/>
<polygon fill="black" stroke="black" points="503.885,-1217.32 486.553,-1205.12 492.499,-1225.46 503.885,-1217.32"/>
</g>
<!-- TNFa&#45;&gt;PI3K -->
<g id="edge23" class="edge"><title>TNFa&#45;&gt;PI3K:center</title>
<path fill="none" stroke="black" stroke-width="3" d="M658.141,-1364.24C700.699,-1325.63 772.815,-1260.2 821.194,-1216.31"/>
<polygon fill="black" stroke="black" points="826.198,-1221.22 836.307,-1202.6 816.791,-1210.85 826.198,-1221.22"/>
</g>
<!-- EGF -->
<g id="node14" class="node"><title>EGF</title>
<ellipse fill="#9acd32" stroke="#9acd32" cx="1060.14" cy="-1396" rx="72" ry="36"/>
<text text-anchor="middle" x="1060.14" y="-1390.2" font-family="Helvetica,sans-Serif" font-size="22.00">EGF</text>
</g>
<!-- EGF&#45;&gt;PI3K -->
<g id="edge33" class="edge"><title>EGF&#45;&gt;PI3K:center</title>
<path fill="none" stroke="black" stroke-width="3" d="M1032.25,-1362.8C1000.56,-1325.08 948.548,-1263.16 912.218,-1219.91"/>
<polygon fill="black" stroke="black" points="917.361,-1215.15 899.137,-1204.34 906.641,-1224.15 917.361,-1215.15"/>
</g>
<!-- EGF&#45;&gt;Ras -->
<g id="edge35" class="edge"><title>EGF&#45;&gt;Ras:center</title>
<path fill="none" stroke="black" stroke-width="3" d="M1090.38,-1362.8C1125,-1324.8 1181.99,-1262.25 1221.43,-1218.96"/>
<polygon fill="black" stroke="black" points="1226.8,-1223.47 1235.1,-1203.97 1216.45,-1214.04 1226.8,-1223.47"/>
</g>
<!-- p90RSK -->
<g id="node18" class="node"><title>p90RSK</title>
<ellipse fill="lightblue" stroke="lightblue" stroke-width="2" cx="1039.14" cy="-44" rx="72" ry="36"/>
<text text-anchor="middle" x="1039.14" y="-38.2" font-family="Helvetica,sans-Serif" font-size="22.00">p90RSK</text>
</g>
<!-- Erk -->
<g id="node19" class="node"><title>Erk</title>
<ellipse fill="lightblue" stroke="lightblue" stroke-width="2" cx="759.135" cy="-269" rx="72" ry="36"/>
<text text-anchor="middle" x="759.135" y="-263.2" font-family="Helvetica,sans-Serif" font-size="22.00">Erk</text>
</g>
<!-- Erk&#45;&gt;Hsp27 -->
<g id="edge9" class="edge"><title>Erk&#45;&gt;Hsp27:center</title>
<path fill="none" stroke="black" stroke-width="3" d="M736.201,-234.827C711.313,-197.741 671.293,-138.11 642.614,-95.3757"/>
<polygon fill="black" stroke="black" points="648.242,-91.2003 631.285,-78.4943 636.617,-99.0019 648.242,-91.2003"/>
</g>
<!-- cJun&#45;&gt;and1 -->
<g id="edge11" class="edge"><title>cJun&#45;&gt;and1:center</title>
<path fill="none" stroke="red" stroke-width="3" d="M714.056,-503.88C786.157,-517.412 888.135,-550.738 888.135,-631 888.135,-809 888.135,-809 888.135,-809 888.135,-862.426 707.397,-924.628 657.028,-940.926"/>
<polygon fill="red" stroke="red" points="652.159,-952.97 646.093,-933.912 649.905,-932.698 655.97,-951.757 652.159,-952.97"/>
<polyline fill="none" stroke="red" points="647.22,-944.047 656.749,-941.015 "/>
</g>
<!-- Mek -->
<g id="node21" class="node"><title>Mek</title>
<ellipse fill="white" stroke="black" stroke-width="2" cx="1039.14" cy="-495" rx="72" ry="36"/>
<text text-anchor="middle" x="1039.14" y="-489.2" font-family="Helvetica,sans-Serif" font-size="22.00">Mek</text>
</g>
<!-- Mek&#45;&gt;p90RSK -->
<g id="edge39" class="edge"><title>Mek&#45;&gt;p90RSK:center</title>
<path fill="none" stroke="black" stroke-width="3" d="M1039.14,-458.921C1039.14,-431.512 1039.14,-392.882 1039.14,-359 1039.14,-359 1039.14,-359 1039.14,-180 1039.14,-153.794 1039.14,-124.749 1039.14,-100.251"/>
<polygon fill="black" stroke="black" points="1046.14,-100.079 1039.14,-80.0791 1032.14,-100.079 1046.14,-100.079"/>
</g>
<!-- Mek&#45;&gt;Erk -->
<g id="edge37" class="edge"><title>Mek&#45;&gt;Erk:center</title>
<path fill="none" stroke="black" stroke-width="3" d="M1001.08,-464.285C952.465,-425.045 868.026,-356.891 812.867,-312.369"/>
<polygon fill="black" stroke="black" points="817.065,-306.762 797.105,-299.647 808.272,-317.656 817.065,-306.762"/>
</g>
<!-- and2&#45;&gt;Mek -->
<g id="edge43" class="edge"><title>and2&#45;&gt;Mek:center</title>
<path fill="none" stroke="black" stroke-width="3" d="M1039.14,-716.466C1039.14,-697.952 1039.14,-610.745 1039.14,-551.446"/>
<polygon fill="black" stroke="black" points="1046.14,-551.418 1039.14,-531.418 1032.14,-551.418 1046.14,-551.418"/>
</g>
</g>
</svg>
