<?xml version="1.0" encoding="UTF-8" standalone="no"?>
<!DOCTYPE svg PUBLIC "-//W3C//DTD SVG 1.1//EN"
 "http://www.w3.org/Graphics/SVG/1.1/DTD/svg11.dtd">
<!-- Generated by graphviz version 2.26.3 (20100126.1600)
 -->
<!-- Title: G Pages: 1 -->
<svg width="612pt" height="433pt"
 viewBox="0.00 0.00 612.00 432.53" xmlns="http://www.w3.org/2000/svg" xmlns:xlink="http://www.w3.org/1999/xlink">
<g id="graph1" class="graph" transform="scale(0.566142 0.566142) rotate(0) translate(4 760)">
<title>G</title>
<polygon fill="white" stroke="white" points="-4,5 -4,-760 1078,-760 1078,5 -4,5"/>
<!-- 13 -->
<g id="node2" class="node"><title>13</title>
<ellipse fill="#9acd32" stroke="#9acd32" cx="83" cy="-730" rx="36.7696" ry="25.4558"/>
<text text-anchor="middle" x="83" y="-724.2" font-family="Helvetica,sans-Serif" font-size="22.00">igf1</text>
</g>
<!-- 15 -->
<g id="node7" class="node"><title>15</title>
<ellipse fill="none" stroke="black" stroke-dasharray="5,2" cx="83" cy="-642" rx="33.234" ry="25.4558"/>
<text text-anchor="middle" x="83" y="-636.2" font-family="Helvetica,sans-Serif" font-size="22.00">igfr</text>
</g>
<!-- 13&#45;&gt;15 -->
<g id="edge51" class="edge"><title>13&#45;&gt;15</title>
<path fill="none" stroke="#e5e5e5" d="M83,-704.073C83,-695.838 83,-686.58 83,-677.777"/>
<polygon fill="#e5e5e5" stroke="#e5e5e5" points="86.5001,-677.742 83,-667.742 79.5001,-677.742 86.5001,-677.742"/>
</g>
<!-- 24 -->
<g id="node3" class="node"><title>24</title>
<ellipse fill="#9acd32" stroke="#9acd32" cx="224" cy="-730" rx="36.977" ry="25.4558"/>
<text text-anchor="middle" x="224" y="-724.2" font-family="Helvetica,sans-Serif" font-size="22.00">tgfa</text>
</g>
<!-- 29 -->
<g id="node9" class="node"><title>29</title>
<ellipse fill="none" stroke="black" stroke-dasharray="5,2" cx="224" cy="-642" rx="38.1838" ry="25.4558"/>
<text text-anchor="middle" x="224" y="-636.2" font-family="Helvetica,sans-Serif" font-size="22.00">egfr</text>
</g>
<!-- 24&#45;&gt;29 -->
<g id="edge81" class="edge"><title>24&#45;&gt;29</title>
<path fill="none" stroke="forestgreen" stroke-width="3.1" d="M224,-704.073C224,-695.838 224,-686.58 224,-677.777"/>
<polygon fill="forestgreen" stroke="forestgreen" points="227.5,-677.742 224,-667.742 220.5,-677.742 227.5,-677.742"/>
</g>
<!-- 31 -->
<g id="node4" class="node"><title>31</title>
<ellipse fill="#9acd32" stroke="#9acd32" cx="568" cy="-730" rx="36.0624" ry="25.4558"/>
<text text-anchor="middle" x="568" y="-724.2" font-family="Helvetica,sans-Serif" font-size="22.00">il1a</text>
</g>
<!-- 20 -->
<g id="node8" class="node"><title>20</title>
<ellipse fill="none" stroke="black" stroke-dasharray="5,2" cx="568" cy="-642" rx="33.234" ry="25.4558"/>
<text text-anchor="middle" x="568" y="-636.2" font-family="Helvetica,sans-Serif" font-size="22.00">il1r</text>
</g>
<!-- 31&#45;&gt;20 -->
<g id="edge109" class="edge"><title>31&#45;&gt;20</title>
<path fill="none" stroke="#e5e5e5" d="M568,-704.073C568,-695.838 568,-686.58 568,-677.777"/>
<polygon fill="#e5e5e5" stroke="#e5e5e5" points="571.5,-677.742 568,-667.742 564.5,-677.742 571.5,-677.742"/>
</g>
<!-- 36 -->
<g id="node5" class="node"><title>36</title>
<ellipse fill="#9acd32" stroke="#9acd32" cx="423" cy="-730" rx="36.977" ry="25.4558"/>
<text text-anchor="middle" x="423" y="-724.2" font-family="Helvetica,sans-Serif" font-size="22.00">tnfa</text>
</g>
<!-- 30 -->
<g id="node10" class="node"><title>30</title>
<ellipse fill="none" stroke="black" stroke-dasharray="5,2" cx="423" cy="-642" rx="33.9411" ry="25.4558"/>
<text text-anchor="middle" x="423" y="-636.2" font-family="Helvetica,sans-Serif" font-size="22.00">tnfr</text>
</g>
<!-- 36&#45;&gt;30 -->
<g id="edge121" class="edge"><title>36&#45;&gt;30</title>
<path fill="none" stroke="forestgreen" stroke-width="2.8" d="M423,-704.073C423,-695.838 423,-686.58 423,-677.777"/>
<polygon fill="forestgreen" stroke="forestgreen" points="426.5,-677.742 423,-667.742 419.5,-677.742 426.5,-677.742"/>
</g>
<!-- 8 -->
<g id="node12" class="node"><title>8</title>
<ellipse fill="none" stroke="black" stroke-dasharray="5,2" cx="37" cy="-554" rx="36.977" ry="25.4558"/>
<text text-anchor="middle" x="37" y="-548.2" font-family="Helvetica,sans-Serif" font-size="22.00">irs1</text>
</g>
<!-- 15&#45;&gt;8 -->
<g id="edge55" class="edge"><title>15&#45;&gt;8</title>
<path fill="none" stroke="#e5e5e5" d="M70.4303,-617.954C65.4609,-608.447 59.6673,-597.364 54.3125,-587.12"/>
<polygon fill="#e5e5e5" stroke="#e5e5e5" points="57.2889,-585.258 49.5545,-578.017 51.0853,-588.501 57.2889,-585.258"/>
</g>
<!-- 22 -->
<g id="node15" class="node"><title>22</title>
<ellipse fill="none" stroke="black" stroke-dasharray="5,2" cx="128" cy="-554" rx="36.0624" ry="25.4558"/>
<text text-anchor="middle" x="128" y="-548.2" font-family="Helvetica,sans-Serif" font-size="22.00">shc</text>
</g>
<!-- 15&#45;&gt;22 -->
<g id="edge57" class="edge"><title>15&#45;&gt;22</title>
<path fill="none" stroke="#e5e5e5" d="M95.2964,-617.954C100.158,-608.447 105.825,-597.364 111.064,-587.12"/>
<polygon fill="#e5e5e5" stroke="#e5e5e5" points="114.282,-588.514 115.718,-578.017 108.049,-585.327 114.282,-588.514"/>
</g>
<!-- 19 -->
<g id="node14" class="node"><title>19</title>
<ellipse fill="none" stroke="black" stroke-dasharray="5,2" cx="568" cy="-554" rx="41.9273" ry="25.4558"/>
<text text-anchor="middle" x="568" y="-548.2" font-family="Helvetica,sans-Serif" font-size="22.00">traf6</text>
</g>
<!-- 20&#45;&gt;19 -->
<g id="edge73" class="edge"><title>20&#45;&gt;19</title>
<path fill="none" stroke="#e5e5e5" d="M568,-616.073C568,-607.838 568,-598.58 568,-589.777"/>
<polygon fill="#e5e5e5" stroke="#e5e5e5" points="571.5,-589.742 568,-579.742 564.5,-589.742 571.5,-589.742"/>
</g>
<!-- 11 -->
<g id="node13" class="node"><title>11</title>
<ellipse fill="none" stroke="black" stroke-dasharray="5,2" cx="224" cy="-554" rx="41.9273" ry="25.4558"/>
<text text-anchor="middle" x="224" y="-548.2" font-family="Helvetica,sans-Serif" font-size="22.00">grb2</text>
</g>
<!-- 29&#45;&gt;11 -->
<g id="edge101" class="edge"><title>29&#45;&gt;11</title>
<path fill="none" stroke="#e5e5e5" d="M224,-616.073C224,-607.838 224,-598.58 224,-589.777"/>
<polygon fill="#e5e5e5" stroke="#e5e5e5" points="227.5,-589.742 224,-579.742 220.5,-589.742 227.5,-589.742"/>
</g>
<!-- 29&#45;&gt;22 -->
<g id="edge99" class="edge"><title>29&#45;&gt;22</title>
<path fill="none" stroke="#e5e5e5" d="M201.249,-621.145C188.244,-609.223 171.781,-594.132 157.758,-581.278"/>
<polygon fill="#e5e5e5" stroke="#e5e5e5" points="159.993,-578.579 150.256,-574.402 155.263,-583.739 159.993,-578.579"/>
</g>
<!-- 27 -->
<g id="node17" class="node"><title>27</title>
<ellipse fill="orangered" stroke="orangered" cx="324" cy="-554" rx="39.8075" ry="25.4558"/>
<text text-anchor="middle" x="324" y="-548.2" font-family="Helvetica,sans-Serif" font-size="22.00">pi3k</text>
</g>
<!-- 29&#45;&gt;27 -->
<g id="edge103" class="edge"><title>29&#45;&gt;27</title>
<path fill="none" stroke="forestgreen" stroke-width="3.1" d="M247.193,-621.59C260.63,-609.766 277.733,-594.715 292.387,-581.819"/>
<polygon fill="forestgreen" stroke="forestgreen" points="295.043,-584.144 300.238,-574.911 290.419,-578.889 295.043,-584.144"/>
</g>
<!-- 25 -->
<g id="node16" class="node"><title>25</title>
<ellipse fill="none" stroke="black" stroke-dasharray="5,2" cx="707" cy="-554" rx="41.9273" ry="25.4558"/>
<text text-anchor="middle" x="707" y="-548.2" font-family="Helvetica,sans-Serif" font-size="22.00">traf2</text>
</g>
<!-- 30&#45;&gt;25 -->
<g id="edge105" class="edge"><title>30&#45;&gt;25</title>
<path fill="none" stroke="#e5e5e5" d="M454.478,-632.246C504.309,-616.806 601.659,-586.641 659.852,-568.609"/>
<polygon fill="#e5e5e5" stroke="#e5e5e5" points="661.025,-571.91 669.541,-565.607 658.953,-565.224 661.025,-571.91"/>
</g>
<!-- 30&#45;&gt;27 -->
<g id="edge107" class="edge"><title>30&#45;&gt;27</title>
<path fill="none" stroke="forestgreen" stroke-width="2.8" d="M401.029,-622.47C387.543,-610.483 370.06,-594.943 355.16,-581.698"/>
<polygon fill="forestgreen" stroke="forestgreen" points="357.438,-579.04 347.638,-575.012 352.787,-584.271 357.438,-579.04"/>
</g>
<!-- 8&#45;&gt;27 -->
<g id="edge35" class="edge"><title>8&#45;&gt;27</title>
<path fill="none" stroke="#e5e5e5" d="M57.1064,-575.568C66.7169,-584.317 78.9611,-593.426 92,-598 128.487,-610.799 229.351,-610.328 266,-598 276.258,-594.549 286.144,-588.484 294.757,-581.939"/>
<polygon fill="#e5e5e5" stroke="#e5e5e5" points="297.031,-584.602 302.597,-575.587 292.624,-579.163 297.031,-584.602"/>
</g>
<!-- 16 -->
<g id="node22" class="node"><title>16</title>
<ellipse fill="none" stroke="black" stroke-dasharray="5,2" cx="160" cy="-466" rx="36.0624" ry="25.4558"/>
<text text-anchor="middle" x="160" y="-460.2" font-family="Helvetica,sans-Serif" font-size="22.00">sos</text>
</g>
<!-- 11&#45;&gt;16 -->
<g id="edge45" class="edge"><title>11&#45;&gt;16</title>
<path fill="none" stroke="#e5e5e5" d="M206.849,-530.418C199.355,-520.113 190.464,-507.888 182.452,-496.872"/>
<polygon fill="#e5e5e5" stroke="#e5e5e5" points="185.247,-494.764 176.535,-488.735 179.586,-498.881 185.247,-494.764"/>
</g>
<!-- 2 -->
<g id="node19" class="node"><title>2</title>
<ellipse fill="none" stroke="black" cx="707" cy="-466" rx="65.9683" ry="25.4558"/>
<text text-anchor="middle" x="707" y="-460.2" font-family="Helvetica,sans-Serif" font-size="22.00">map3k7</text>
</g>
<!-- 19&#45;&gt;2 -->
<g id="edge71" class="edge"><title>19&#45;&gt;2</title>
<path fill="none" stroke="#e5e5e5" d="M597.139,-535.552C616.45,-523.327 642.123,-507.073 663.795,-493.353"/>
<polygon fill="#e5e5e5" stroke="#e5e5e5" points="665.921,-496.149 672.498,-487.843 662.177,-490.235 665.921,-496.149"/>
</g>
<!-- 26 -->
<g id="node23" class="node"><title>26</title>
<ellipse fill="none" stroke="black" stroke-dasharray="5,2" cx="532" cy="-466" rx="51.8276" ry="25.4558"/>
<text text-anchor="middle" x="532" y="-460.2" font-family="Helvetica,sans-Serif" font-size="22.00">sitpec</text>
</g>
<!-- 19&#45;&gt;26 -->
<g id="edge69" class="edge"><title>19&#45;&gt;26</title>
<path fill="none" stroke="#e5e5e5" d="M557.78,-529.018C554.132,-520.1 549.956,-509.892 546.042,-500.325"/>
<polygon fill="#e5e5e5" stroke="#e5e5e5" points="549.271,-498.975 542.245,-491.044 542.792,-501.625 549.271,-498.975"/>
</g>
<!-- 22&#45;&gt;11 -->
<g id="edge77" class="edge"><title>22&#45;&gt;11</title>
<path fill="none" stroke="#e5e5e5" d="M164,-554C166.598,-554 169.195,-554 171.793,-554"/>
<polygon fill="#e5e5e5" stroke="#e5e5e5" points="171.813,-557.5 181.812,-554 171.812,-550.5 171.813,-557.5"/>
</g>
<!-- 25&#45;&gt;2 -->
<g id="edge85" class="edge"><title>25&#45;&gt;2</title>
<path fill="none" stroke="#e5e5e5" d="M707,-528.073C707,-519.838 707,-510.58 707,-501.777"/>
<polygon fill="#e5e5e5" stroke="#e5e5e5" points="710.5,-501.742 707,-491.742 703.5,-501.742 710.5,-501.742"/>
</g>
<!-- 37 -->
<g id="node24" class="node"><title>37</title>
<ellipse fill="none" stroke="black" stroke-dasharray="5,2" cx="908" cy="-466" rx="44.0472" ry="25.4558"/>
<text text-anchor="middle" x="908" y="-460.2" font-family="Helvetica,sans-Serif" font-size="22.00">ask1</text>
</g>
<!-- 25&#45;&gt;37 -->
<g id="edge83" class="edge"><title>25&#45;&gt;37</title>
<path fill="none" stroke="#e5e5e5" d="M741.097,-539.072C774.718,-524.352 826.285,-501.776 863.199,-485.614"/>
<polygon fill="#e5e5e5" stroke="#e5e5e5" points="864.964,-488.662 872.721,-481.446 862.156,-482.25 864.964,-488.662"/>
</g>
<!-- 3 -->
<g id="node20" class="node"><title>3</title>
<ellipse fill="none" stroke="black" stroke-dasharray="5,2" cx="255" cy="-466" rx="41.0122" ry="25.4558"/>
<text text-anchor="middle" x="255" y="-460.2" font-family="Helvetica,sans-Serif" font-size="22.00">pip3</text>
</g>
<!-- 27&#45;&gt;3 -->
<g id="edge91" class="edge"><title>27&#45;&gt;3</title>
<path fill="none" stroke="#e5e5e5" d="M305.871,-530.879C297.71,-520.471 287.958,-508.033 279.186,-496.845"/>
<polygon fill="#e5e5e5" stroke="#e5e5e5" points="281.933,-494.676 273.008,-488.967 276.424,-498.996 281.933,-494.676"/>
</g>
<!-- 5 -->
<g id="node21" class="node"><title>5</title>
<ellipse fill="none" stroke="black" stroke-dasharray="5,2" cx="385" cy="-466" rx="33.234" ry="25.4558"/>
<text text-anchor="middle" x="385" y="-460.2" font-family="Helvetica,sans-Serif" font-size="22.00">rac</text>
</g>
<!-- 27&#45;&gt;5 -->
<g id="edge89" class="edge"><title>27&#45;&gt;5</title>
<path fill="none" stroke="forestgreen" stroke-width="1.3" d="M340.347,-530.418C347.42,-520.214 355.798,-508.128 363.375,-497.196"/>
<polygon fill="forestgreen" stroke="forestgreen" points="366.42,-498.948 369.24,-488.735 360.667,-494.96 366.42,-498.948"/>
</g>
<!-- 9 -->
<g id="node27" class="node"><title>9</title>
<ellipse fill="none" stroke="black" stroke-dasharray="5,2" cx="577" cy="-378" rx="31.8198" ry="25.4558"/>
<text text-anchor="middle" x="577" y="-372.2" font-family="Helvetica,sans-Serif" font-size="22.00">nik</text>
</g>
<!-- 2&#45;&gt;9 -->
<g id="edge15" class="edge"><title>2&#45;&gt;9</title>
<path fill="none" stroke="forestgreen" stroke-width="3.4" d="M674.196,-443.794C654.539,-430.488 629.627,-413.625 609.946,-400.302"/>
<polygon fill="forestgreen" stroke="forestgreen" points="611.829,-397.35 601.586,-394.643 607.905,-403.147 611.829,-397.35"/>
</g>
<!-- 12 -->
<g id="node29" class="node"><title>12</title>
<ellipse fill="none" stroke="black" cx="908" cy="-378" rx="48.7904" ry="25.4558"/>
<text text-anchor="middle" x="908" y="-372.2" font-family="Helvetica,sans-Serif" font-size="22.00">mkk4</text>
</g>
<!-- 2&#45;&gt;12 -->
<g id="edge21" class="edge"><title>2&#45;&gt;12</title>
<path fill="none" stroke="forestgreen" stroke-width="2.2" d="M751.189,-447.008C779.478,-434.808 816.946,-418.574 850,-404 853.805,-402.322 857.747,-400.575 861.703,-398.815"/>
<polygon fill="forestgreen" stroke="forestgreen" points="863.194,-401.982 870.901,-394.712 860.342,-395.59 863.194,-401.982"/>
</g>
<!-- 14 -->
<g id="node30" class="node"><title>14</title>
<ellipse fill="none" stroke="black" stroke-dasharray="5,2" cx="1024" cy="-378" rx="48.7904" ry="25.4558"/>
<text text-anchor="middle" x="1024" y="-372.2" font-family="Helvetica,sans-Serif" font-size="22.00">mkk7</text>
</g>
<!-- 2&#45;&gt;14 -->
<g id="edge13" class="edge"><title>2&#45;&gt;14</title>
<path fill="none" stroke="forestgreen" stroke-width="1.9" d="M766.782,-454.988C819.861,-444.436 899.144,-426.765 966,-404 970.054,-402.619 974.212,-401.06 978.35,-399.407"/>
<polygon fill="forestgreen" stroke="forestgreen" points="980.024,-402.502 987.907,-395.423 977.33,-396.041 980.024,-402.502"/>
</g>
<!-- 23 -->
<g id="node31" class="node"><title>23</title>
<ellipse fill="none" stroke="black" stroke-dasharray="5,2" cx="792" cy="-378" rx="48.7904" ry="25.4558"/>
<text text-anchor="middle" x="792" y="-372.2" font-family="Helvetica,sans-Serif" font-size="22.00">mkk6</text>
</g>
<!-- 2&#45;&gt;23 -->
<g id="edge19" class="edge"><title>2&#45;&gt;23</title>
<path fill="none" stroke="#e5e5e5" d="M730.227,-441.954C740.291,-431.534 752.185,-419.221 762.835,-408.194"/>
<polygon fill="#e5e5e5" stroke="#e5e5e5" points="765.542,-410.43 769.972,-400.805 760.507,-405.566 765.542,-410.43"/>
</g>
<!-- 33 -->
<g id="node33" class="node"><title>33</title>
<ellipse fill="none" stroke="black" stroke-dasharray="5,2" cx="676" cy="-378" rx="48.7904" ry="25.4558"/>
<text text-anchor="middle" x="676" y="-372.2" font-family="Helvetica,sans-Serif" font-size="22.00">mkk3</text>
</g>
<!-- 2&#45;&gt;33 -->
<g id="edge17" class="edge"><title>2&#45;&gt;33</title>
<path fill="none" stroke="forestgreen" stroke-width="2.5" d="M698.034,-440.547C694.954,-431.806 691.454,-421.871 688.165,-412.532"/>
<polygon fill="forestgreen" stroke="forestgreen" points="691.463,-411.361 684.839,-403.092 684.861,-413.687 691.463,-411.361"/>
</g>
<!-- 35 -->
<g id="node34" class="node"><title>35</title>
<ellipse fill="none" stroke="black" stroke-dasharray="5,2" cx="156" cy="-378" rx="44.7575" ry="25.4558"/>
<text text-anchor="middle" x="156" y="-372.2" font-family="Helvetica,sans-Serif" font-size="22.00">pdk1</text>
</g>
<!-- 3&#45;&gt;35 -->
<g id="edge23" class="edge"><title>3&#45;&gt;35</title>
<path fill="none" stroke="#e5e5e5" d="M231.287,-444.922C218.255,-433.338 201.915,-418.814 187.791,-406.259"/>
<polygon fill="#e5e5e5" stroke="#e5e5e5" points="190.007,-403.545 180.207,-399.518 185.356,-408.777 190.007,-403.545"/>
</g>
<!-- 4 -->
<g id="node26" class="node"><title>4</title>
<ellipse fill="none" stroke="black" stroke-dasharray="5,2" cx="340" cy="-378" rx="36.7696" ry="25.4558"/>
<text text-anchor="middle" x="340" y="-372.2" font-family="Helvetica,sans-Serif" font-size="22.00">pak</text>
</g>
<!-- 5&#45;&gt;4 -->
<g id="edge29" class="edge"><title>5&#45;&gt;4</title>
<path fill="none" stroke="#e5e5e5" d="M372.704,-441.954C367.882,-432.525 362.267,-421.545 357.065,-411.372"/>
<polygon fill="#e5e5e5" stroke="#e5e5e5" points="360.107,-409.633 352.438,-402.323 353.875,-412.82 360.107,-409.633"/>
</g>
<!-- 10 -->
<g id="node28" class="node"><title>10</title>
<ellipse fill="none" stroke="black" cx="461" cy="-378" rx="65.9683" ry="25.4558"/>
<text text-anchor="middle" x="461" y="-372.2" font-family="Helvetica,sans-Serif" font-size="22.00">map3k1</text>
</g>
<!-- 5&#45;&gt;10 -->
<g id="edge27" class="edge"><title>5&#45;&gt;10</title>
<path fill="none" stroke="forestgreen" stroke-width="1.3" d="M403.397,-444.698C412.392,-434.283 423.405,-421.531 433.383,-409.978"/>
<polygon fill="forestgreen" stroke="forestgreen" points="436.201,-412.07 440.088,-402.214 430.903,-407.494 436.201,-412.07"/>
</g>
<!-- 28 -->
<g id="node32" class="node"><title>28</title>
<ellipse fill="none" stroke="black" cx="252" cy="-378" rx="33.234" ry="25.4558"/>
<text text-anchor="middle" x="252" y="-372.2" font-family="Helvetica,sans-Serif" font-size="22.00">ras</text>
</g>
<!-- 16&#45;&gt;28 -->
<g id="edge59" class="edge"><title>16&#45;&gt;28</title>
<path fill="none" stroke="#e5e5e5" d="M181.803,-445.145C194.24,-433.249 209.976,-418.197 223.396,-405.36"/>
<polygon fill="#e5e5e5" stroke="#e5e5e5" points="226.18,-407.541 230.987,-398.099 221.341,-402.482 226.18,-407.541"/>
</g>
<!-- 26&#45;&gt;10 -->
<g id="edge87" class="edge"><title>26&#45;&gt;10</title>
<path fill="none" stroke="#e5e5e5" d="M512.599,-441.954C504.824,-432.317 495.741,-421.059 487.382,-410.699"/>
<polygon fill="#e5e5e5" stroke="#e5e5e5" points="489.875,-408.215 480.872,-402.63 484.427,-412.61 489.875,-408.215"/>
</g>
<!-- 37&#45;&gt;12 -->
<g id="edge123" class="edge"><title>37&#45;&gt;12</title>
<path fill="none" stroke="#e5e5e5" d="M908,-440.073C908,-431.838 908,-422.58 908,-413.777"/>
<polygon fill="#e5e5e5" stroke="#e5e5e5" points="911.5,-413.742 908,-403.742 904.5,-413.742 911.5,-413.742"/>
</g>
<!-- 37&#45;&gt;14 -->
<g id="edge125" class="edge"><title>37&#45;&gt;14</title>
<path fill="none" stroke="#e5e5e5" d="M934.904,-445.59C950.664,-433.634 970.772,-418.38 987.896,-405.389"/>
<polygon fill="#e5e5e5" stroke="#e5e5e5" points="990.179,-408.051 996.031,-399.218 985.948,-402.474 990.179,-408.051"/>
</g>
<!-- 6 -->
<g id="node37" class="node"><title>6</title>
<ellipse fill="none" stroke="black" stroke-dasharray="5,2" cx="340" cy="-290" rx="38.1838" ry="25.4558"/>
<text text-anchor="middle" x="340" y="-284.2" font-family="Helvetica,sans-Serif" font-size="22.00">raf1</text>
</g>
<!-- 4&#45;&gt;6 -->
<g id="edge25" class="edge"><title>4&#45;&gt;6</title>
<path fill="none" stroke="#e5e5e5" d="M340,-352.073C340,-343.838 340,-334.58 340,-325.777"/>
<polygon fill="#e5e5e5" stroke="#e5e5e5" points="343.5,-325.742 340,-315.742 336.5,-325.742 343.5,-325.742"/>
</g>
<!-- 17 -->
<g id="node38" class="node"><title>17</title>
<ellipse fill="orangered" stroke="orangered" cx="467" cy="-290" rx="31.1127" ry="25.4558"/>
<text text-anchor="middle" x="467" y="-284.2" font-family="Helvetica,sans-Serif" font-size="22.00">ikk</text>
</g>
<!-- 9&#45;&gt;17 -->
<g id="edge37" class="edge"><title>9&#45;&gt;17</title>
<path fill="none" stroke="forestgreen" stroke-width="3.4" d="M554.208,-359.766C537.727,-346.582 515.29,-328.632 497.301,-314.241"/>
<polygon fill="forestgreen" stroke="forestgreen" points="499.382,-311.423 489.387,-307.909 495.009,-316.889 499.382,-311.423"/>
</g>
<!-- 10&#45;&gt;12 -->
<g id="edge43" class="edge"><title>10&#45;&gt;12</title>
<path fill="none" stroke="forestgreen" stroke-width="1.6" d="M494.24,-400.155C509.106,-408.782 527.255,-417.634 545,-422 608.873,-437.716 777.979,-440.843 841,-422 852.549,-418.547 863.954,-412.392 873.99,-405.76"/>
<polygon fill="forestgreen" stroke="forestgreen" points="876.234,-408.462 882.426,-399.865 872.224,-402.725 876.234,-408.462"/>
</g>
<!-- 10&#45;&gt;14 -->
<g id="edge39" class="edge"><title>10&#45;&gt;14</title>
<path fill="none" stroke="#e5e5e5" d="M494.24,-400.155C509.106,-408.782 527.255,-417.634 545,-422 589.452,-432.937 913.141,-435.114 957,-422 968.549,-418.547 979.954,-412.392 989.99,-405.76"/>
<polygon fill="#e5e5e5" stroke="#e5e5e5" points="992.234,-408.462 998.426,-399.865 988.224,-402.725 992.234,-408.462"/>
</g>
<!-- 10&#45;&gt;17 -->
<g id="edge41" class="edge"><title>10&#45;&gt;17</title>
<path fill="none" stroke="forestgreen" stroke-width="1.6" d="M462.768,-352.073C463.329,-343.838 463.96,-334.58 464.561,-325.777"/>
<polygon fill="forestgreen" stroke="forestgreen" points="468.056,-325.957 465.245,-315.742 461.073,-325.48 468.056,-325.957"/>
</g>
<!-- 21 -->
<g id="node40" class="node"><title>21</title>
<ellipse fill="lightblue" stroke="orangered" stroke-width="2" cx="792" cy="-290" rx="36.977" ry="25.4558"/>
<polyline fill="none" stroke="orangered" stroke-width="2" points="816.472,-309.125 767.528,-309.125 "/>
<polyline fill="none" stroke="orangered" stroke-width="2" points="816.472,-270.875 767.528,-270.875 "/>
<text text-anchor="middle" x="792" y="-284.2" font-family="Helvetica,sans-Serif" font-size="22.00">p38</text>
</g>
<!-- 12&#45;&gt;21 -->
<g id="edge47" class="edge"><title>12&#45;&gt;21</title>
<path fill="none" stroke="forestgreen" stroke-width="2.2" d="M880.215,-356.922C863.741,-344.424 842.755,-328.504 825.386,-315.327"/>
<polygon fill="forestgreen" stroke="forestgreen" points="827.267,-312.361 817.185,-309.106 823.036,-317.938 827.267,-312.361"/>
</g>
<!-- 39 -->
<g id="node48" class="node"><title>39</title>
<ellipse fill="lightblue" stroke="lightblue" cx="966" cy="-26" rx="48.7904" ry="25.4558"/>
<text text-anchor="middle" x="966" y="-20.2" font-family="Helvetica,sans-Serif" font-size="22.00">jnk12</text>
</g>
<!-- 12&#45;&gt;39 -->
<g id="edge49" class="edge"><title>12&#45;&gt;39</title>
<path fill="none" stroke="forestgreen" stroke-width="1.9" d="M912.218,-352.401C922.409,-290.554 948.392,-132.863 960.11,-61.7458"/>
<polygon fill="forestgreen" stroke="forestgreen" points="963.625,-61.9386 961.798,-51.5026 956.719,-60.8004 963.625,-61.9386"/>
</g>
<!-- 14&#45;&gt;39 -->
<g id="edge53" class="edge"><title>14&#45;&gt;39</title>
<path fill="none" stroke="forestgreen" stroke-width="1.9" d="M1019.78,-352.401C1009.59,-290.554 983.608,-132.863 971.89,-61.7458"/>
<polygon fill="forestgreen" stroke="forestgreen" points="975.281,-60.8004 970.202,-51.5026 968.375,-61.9386 975.281,-60.8004"/>
</g>
<!-- 23&#45;&gt;21 -->
<g id="edge79" class="edge"><title>23&#45;&gt;21</title>
<path fill="none" stroke="#e5e5e5" d="M792,-352.073C792,-343.838 792,-334.58 792,-325.777"/>
<polygon fill="#e5e5e5" stroke="#e5e5e5" points="795.5,-325.742 792,-315.742 788.5,-325.742 795.5,-325.742"/>
</g>
<!-- 28&#45;&gt;27 -->
<g id="edge93" class="edge"><title>28&#45;&gt;27</title>
<path fill="none" stroke="forestgreen" stroke-width="1.3" d="M273.556,-397.487C284.71,-408.799 297.521,-423.957 305,-440 316.469,-464.602 321.122,-495.037 322.961,-518.27"/>
<polygon fill="forestgreen" stroke="forestgreen" points="319.477,-518.641 323.621,-528.391 326.462,-518.185 319.477,-518.641"/>
</g>
<!-- 28&#45;&gt;10 -->
<g id="edge97" class="edge"><title>28&#45;&gt;10</title>
<path fill="none" stroke="#e5e5e5" d="M270.133,-399.307C279.024,-408.121 290.504,-417.355 303,-422 333.828,-433.46 345.064,-429.858 377,-422 391.279,-418.487 405.82,-412.069 418.701,-405.2"/>
<polygon fill="#e5e5e5" stroke="#e5e5e5" points="420.727,-408.079 427.76,-400.155 417.321,-401.963 420.727,-408.079"/>
</g>
<!-- 28&#45;&gt;6 -->
<g id="edge95" class="edge"><title>28&#45;&gt;6</title>
<path fill="none" stroke="forestgreen" stroke-width="3.1" d="M272.41,-357.59C284.04,-345.96 298.791,-331.209 311.543,-318.457"/>
<polygon fill="forestgreen" stroke="forestgreen" points="314.186,-320.764 318.782,-311.218 309.236,-315.814 314.186,-320.764"/>
</g>
<!-- 1 -->
<g id="node36" class="node"><title>1</title>
<ellipse fill="none" stroke="black" stroke-dasharray="5,2" cx="626" cy="-290" rx="41.2167" ry="25.4558"/>
<text text-anchor="middle" x="626" y="-284.2" font-family="Helvetica,sans-Serif" font-size="22.00">prak</text>
</g>
<!-- 33&#45;&gt;1 -->
<g id="edge115" class="edge"><title>33&#45;&gt;1</title>
<path fill="none" stroke="#e5e5e5" d="M662.072,-353.487C656.718,-344.064 650.516,-333.147 644.779,-323.052"/>
<polygon fill="#e5e5e5" stroke="#e5e5e5" points="647.664,-321.043 639.68,-314.077 641.577,-324.501 647.664,-321.043"/>
</g>
<!-- 33&#45;&gt;21 -->
<g id="edge113" class="edge"><title>33&#45;&gt;21</title>
<path fill="none" stroke="forestgreen" stroke-width="2.5" d="M703.785,-356.922C720.259,-344.424 741.245,-328.504 758.614,-315.327"/>
<polygon fill="forestgreen" stroke="forestgreen" points="760.964,-317.938 766.815,-309.106 756.733,-312.361 760.964,-317.938"/>
</g>
<!-- 18 -->
<g id="node39" class="node"><title>18</title>
<ellipse fill="lightblue" stroke="lightblue" cx="242" cy="-290" rx="32.0265" ry="25.4558"/>
<text text-anchor="middle" x="242" y="-284.2" font-family="Helvetica,sans-Serif" font-size="22.00">akt</text>
</g>
<!-- 35&#45;&gt;18 -->
<g id="edge119" class="edge"><title>35&#45;&gt;18</title>
<path fill="none" stroke="#e5e5e5" d="M178.147,-355.338C189.44,-343.783 203.264,-329.637 215.158,-317.466"/>
<polygon fill="#e5e5e5" stroke="#e5e5e5" points="217.789,-319.782 222.275,-310.184 212.782,-314.889 217.789,-319.782"/>
</g>
<!-- 38 -->
<g id="node47" class="node"><title>38</title>
<ellipse fill="lightblue" stroke="lightblue" cx="626" cy="-26" rx="53.2379" ry="25.4558"/>
<text text-anchor="middle" x="626" y="-20.2" font-family="Helvetica,sans-Serif" font-size="22.00">hsp27</text>
</g>
<!-- 1&#45;&gt;38 -->
<g id="edge11" class="edge"><title>1&#45;&gt;38</title>
<path fill="none" stroke="forestgreen" stroke-width="4" d="M626,-264.206C626,-216.768 626,-115.608 626,-61.6437"/>
<polygon fill="forestgreen" stroke="forestgreen" points="629.5,-61.5101 626,-51.5101 622.5,-61.5102 629.5,-61.5101"/>
</g>
<!-- 7 -->
<g id="node42" class="node"><title>7</title>
<ellipse fill="lightblue" stroke="orangered" stroke-width="2" cx="350" cy="-202" rx="57.9828" ry="25.4558"/>
<polyline fill="none" stroke="orangered" stroke-width="2" points="388.361,-221.125 311.639,-221.125 "/>
<polyline fill="none" stroke="orangered" stroke-width="2" points="388.361,-182.875 311.639,-182.875 "/>
<text text-anchor="middle" x="350" y="-196.2" font-family="Helvetica,sans-Serif" font-size="22.00">mek12</text>
</g>
<!-- 6&#45;&gt;7 -->
<g id="edge31" class="edge"><title>6&#45;&gt;7</title>
<path fill="none" stroke="forestgreen" stroke-width="3.1" d="M342.892,-264.547C343.838,-256.228 344.906,-246.827 345.922,-237.889"/>
<polygon fill="forestgreen" stroke="forestgreen" points="349.428,-238.032 347.079,-227.701 342.473,-237.242 349.428,-238.032"/>
</g>
<!-- 40 -->
<g id="node49" class="node"><title>40</title>
<ellipse fill="lightblue" stroke="lightblue" cx="474" cy="-26" rx="31.8198" ry="25.4558"/>
<text text-anchor="middle" x="474" y="-20.2" font-family="Helvetica,sans-Serif" font-size="22.00">ikb</text>
</g>
<!-- 17&#45;&gt;40 -->
<g id="edge61" class="edge"><title>17&#45;&gt;40</title>
<path fill="none" stroke="forestgreen" stroke-width="4" d="M467.684,-264.206C468.942,-216.768 471.624,-115.608 473.055,-61.6437"/>
<polygon fill="forestgreen" stroke="forestgreen" points="476.557,-61.5994 473.324,-51.5101 469.56,-61.4138 476.557,-61.5994"/>
</g>
<!-- 18&#45;&gt;4 -->
<g id="edge67" class="edge"><title>18&#45;&gt;4</title>
<path fill="none" stroke="#e5e5e5" d="M263.265,-309.095C277.96,-322.291 297.618,-339.943 313.359,-354.077"/>
<polygon fill="#e5e5e5" stroke="#e5e5e5" points="319.867,-353.201 313.186,-360.642 311.698,-359.306 318.379,-351.865 319.867,-353.201"/>
<polyline fill="none" stroke="#e5e5e5" points="317.271,-357.59 313.55,-354.249 "/>
</g>
<!-- 18&#45;&gt;6 -->
<g id="edge63" class="edge"><title>18&#45;&gt;6</title>
<path fill="none" stroke="#e5e5e5" d="M274.156,-290C281.679,-290 289.203,-290 296.726,-290"/>
<polygon fill="#e5e5e5" stroke="#e5e5e5" points="300.934,-285 300.934,-295 298.934,-295 298.934,-285 300.934,-285"/>
<polyline fill="none" stroke="#e5e5e5" points="301.934,-290 296.934,-290 "/>
</g>
<!-- 32 -->
<g id="node43" class="node"><title>32</title>
<ellipse fill="none" stroke="black" stroke-dasharray="5,2" cx="242" cy="-202" rx="32.0265" ry="25.4558"/>
<text text-anchor="middle" x="242" y="-196.2" font-family="Helvetica,sans-Serif" font-size="22.00">cot</text>
</g>
<!-- 18&#45;&gt;32 -->
<g id="edge65" class="edge"><title>18&#45;&gt;32</title>
<path fill="none" stroke="forestgreen" stroke-width="1.3" d="M242,-264.073C242,-255.838 242,-246.58 242,-237.777"/>
<polygon fill="forestgreen" stroke="forestgreen" points="245.5,-237.742 242,-227.742 238.5,-237.742 245.5,-237.742"/>
</g>
<!-- 21&#45;&gt;1 -->
<g id="edge75" class="edge"><title>21&#45;&gt;1</title>
<path fill="none" stroke="forestgreen" stroke-width="4" d="M754.943,-290C729.116,-290 703.288,-290 677.461,-290"/>
<polygon fill="forestgreen" stroke="forestgreen" points="677.176,-286.5 667.176,-290 677.176,-293.5 677.176,-286.5"/>
</g>
<!-- 34 -->
<g id="node45" class="node"><title>34</title>
<ellipse fill="lightblue" stroke="lightblue" cx="373" cy="-114" rx="50.2046" ry="25.4558"/>
<text text-anchor="middle" x="373" y="-108.2" font-family="Helvetica,sans-Serif" font-size="22.00">erk12</text>
</g>
<!-- 7&#45;&gt;34 -->
<g id="edge33" class="edge"><title>7&#45;&gt;34</title>
<path fill="none" stroke="forestgreen" stroke-width="2.5" d="M356.653,-176.547C358.87,-168.064 361.381,-158.456 363.758,-149.36"/>
<polygon fill="forestgreen" stroke="forestgreen" points="367.22,-149.956 366.362,-139.396 360.447,-148.186 367.22,-149.956"/>
</g>
<!-- 32&#45;&gt;17 -->
<g id="edge111" class="edge"><title>32&#45;&gt;17</title>
<path fill="none" stroke="forestgreen" stroke-width="1.3" d="M266.606,-218.938C271.883,-222.188 277.523,-225.387 283,-228 289.788,-231.238 376.563,-260.102 428.483,-277.283"/>
<polygon fill="forestgreen" stroke="forestgreen" points="427.464,-280.632 438.057,-280.449 429.662,-273.986 427.464,-280.632"/>
</g>
<!-- 34&#45;&gt;1 -->
<g id="edge117" class="edge"><title>34&#45;&gt;1</title>
<path fill="none" stroke="#e5e5e5" d="M402.866,-134.776C449.625,-167.304 539.948,-230.138 590.149,-265.06"/>
<polygon fill="#e5e5e5" stroke="#e5e5e5" points="588.235,-267.992 598.443,-270.83 592.233,-262.246 588.235,-267.992"/>
</g>
</g>
</svg>
